# xmcd CD database file generated by Grip 3.2.0
# 
# Track frame offsets:
#       150
#       24355
#       44323
#       68435
#       99910
#       121555
#       146666
#       171457
#       195763
#       218175
#       231609
# 
# Disc length: 3326 seconds
# 
# Revision: 1
# Processed by: cddbd v1.5.1PL0 Copyright (c) Steve Scherf et al.
# Submitted via: Grip 3.2.0
# 
DISCID=8d0cfc0b
DTITLE=Matt Walker and The Necessary Few - Navigational Skills
DYEAR=1900
DGENRE=Blues
TTITLE0=Awake at Night
TTITLE1=Hard to Hide
TTITLE2=Just Add Wine
TTITLE3=Vacancy
TTITLE4=Into the Night
TTITLE5=Boy Under a Bridge
TTITLE6=Do You Remember Our Love?
TTITLE7=Right from Wrong
TTITLE8=Easily Changed
TTITLE9=Everyone was Born to Love
TTITLE10=Once Again
EXTD=
EXTT0=
EXTT1=
EXTT2=
EXTT3=
EXTT4=
EXTT5=
EXTT6=
EXTT7=
EXTT8=
EXTT9=
EXTT10=
PLAYORDER=
